<?xml version="1.0" encoding="UTF-8" standalone="no"?>
<svg
   xmlns:dc="http://purl.org/dc/elements/1.1/"
   xmlns:cc="http://creativecommons.org/ns#"
   xmlns:rdf="http://www.w3.org/1999/02/22-rdf-syntax-ns#"
   xmlns:svg="http://www.w3.org/2000/svg"
   xmlns="http://www.w3.org/2000/svg"
   xml:space="preserve"
   viewBox="0 0 338.584 475.583"
   y="0px"
   x="0px"
   id="Layer_1"
   version="1.1">
   <path
     id="path3"
     d="m 4.5642628,-62.999871 538.5839972,0 0,538.582871 -538.5839972,0 0,-538.582871 z"
     style="fill:none" /><path
     id="path5"
     d="m 305.08622,436.40384 -136.21,36.676 -136.212004,-36.676 -31.4319999,-340.52499 335.2900039,0 -31.436,340.52499 z"
     style="fill:#2062af" /><path
     id="path7"
     d="m 168.87522,123.46084 0,320.367 0.308,0.084 110.229,-29.682 25.443,-290.769 -135.98,0 z"
     style="fill:#3c9cd7" /><path
     style="fill:#ffffff"
     id="path9"
     d="m 91.571216,45.84895 0,-20.267982 29.571004,0 0,-22.1780003 -51.749004,0 0,62.6839403 51.749004,0 0,-20.237958 -29.571004,0 z m 82.766004,-20.267982 20.674,0 0,-22.1780003 -51.754,0 0,22.1780003 c 6.924,6.924 10.535,10.238 20.549,20.251982 -5.854,0 -20.549,0.021 -20.549,0.02 l 0,20.233958 51.754,0 0,-20.237958 -20.674,-20.267982 z m 73.352,0 20.673,0 0,-22.1780003 -51.756,0 0,22.1780003 c 6.924,6.924 10.537,10.238 20.551,20.251982 -5.852,0 -20.551,0.021 -20.551,0.02 l 0,20.233958 51.757,0 0,-20.237958 -20.674,-20.267982 z" /><path
     id="path11"
     d="m 168.75422,208.60584 -97.490004,40.602 3.233,40.199 94.257004,-40.301 100.265,-42.868 4.157,-41.122 -104.422,43.49 z"
     style="fill:#ffffff" /><linearGradient
     gradientTransform="matrix(1,0,0,-1,945.51646,1627.7087)"
     y2="1419.1021"
     x2="-825.50763"
     y1="1338.3013"
     x1="-825.50763"
     gradientUnits="userSpaceOnUse"
     id="SVGID_1_"><stop
       id="stop14"
       style="stop-color:#D1D3D4;stop-opacity:0"
       offset="0.387" /><stop
       id="stop16"
       style="stop-color:#D1D3D4"
       offset="1" /></linearGradient><path
     id="path18"
     d="m 71.263216,249.20784 3.233,40.199 94.257004,-40.301 0,-40.5 -97.490004,40.602 z"
     style="fill:url(#SVGID_1_)" /><linearGradient
     gradientTransform="matrix(1,0,0,-1,945.51646,1627.7087)"
     y2="1462.5913"
     x2="-724.55151"
     y1="1378.6021"
     x1="-724.55151"
     gradientUnits="userSpaceOnUse"
     id="SVGID_2_"><stop
       id="stop21"
       style="stop-color:#D1D3D4;stop-opacity:0"
       offset="0.387" /><stop
       id="stop23"
       style="stop-color:#D1D3D4"
       offset="1" /></linearGradient><path
     id="path25"
     d="m 273.17622,165.11684 -104.422,43.489 0,40.5 100.265,-42.868 4.157,-41.121 z"
     style="fill:url(#SVGID_2_)" /><linearGradient
     gradientTransform="matrix(1,0,0,-1,945.51646,1627.7087)"
     y2="1302.2632"
     x2="-680.03882"
     y1="1302.2632"
     x1="-874.10327"
     gradientUnits="userSpaceOnUse"
     id="SVGID_3_"><stop
       id="stop28"
       style="stop-color:#E8E7E5"
       offset="0" /><stop
       id="stop30"
       style="stop-color:#FFFFFF"
       offset="1" /></linearGradient><path
     id="path32"
     d="m 71.413216,249.20784 3.234,40.199 144.625004,0.461 -3.235,53.598 -47.59,13.398 -45.748,-11.551 -2.772,-33.268 -42.508004,0 5.545,64.225 85.945004,25.412 85.479,-24.951 11.09,-127.523 -194.065004,0 z"
     style="fill:url(#SVGID_3_)" /><g
     transform="translate(4.5642628,-62.999871)"
     id="g34"
     style="opacity:0.05"><path
       id="path36"
       d="m 164.18996,312.20784 -97.490004,0 3.233,40.199 94.257004,0.301 0,-40.5 z m 0,107.528 -0.462,0.129 -45.742,-11.551 -2.772,-33.268 -42.507004,0 5.544,64.225 85.939004,25.412 0,-44.947 z" /></g><linearGradient
     gradientTransform="matrix(1,0,0,-1,945.51646,1627.7087)"
     y2="1442.0308"
     x2="-672.34058"
     y1="1442.0308"
     x1="-883.03198"
     gradientUnits="userSpaceOnUse"
     id="SVGID_4_"><stop
       id="stop39"
       style="stop-color:#E8E7E5"
       offset="0" /><stop
       id="stop41"
       style="stop-color:#FFFFFF"
       offset="1" /></linearGradient><path
     id="path43"
     d="m 62.484216,165.11684 210.692004,0 -4.157,41.122 -201.453004,0 -5.082,-41.122 z"
     style="fill:url(#SVGID_4_)" /><path
     id="path45"
     d="m 168.75422,165.11684 -106.270004,0 5.082,41.122 101.188004,0 0,-41.122 z"
     style="opacity:0.05;enable-background:new" /></svg>