<?xml version="1.0" encoding="UTF-8" standalone="no"?>
<svg
   xmlns:dc="http://purl.org/dc/elements/1.1/"
   xmlns:cc="http://creativecommons.org/ns#"
   xmlns:rdf="http://www.w3.org/1999/02/22-rdf-syntax-ns#"
   xmlns:svg="http://www.w3.org/2000/svg"
   xmlns="http://www.w3.org/2000/svg"
   viewBox="0 0 76.645187 76.632645"
   version="1.1"
   id="svg2">
  <metadata
     id="metadata8">
    <rdf:RDF>
      <cc:Work
         rdf:about="">
        <dc:format>image/svg+xml</dc:format>
        <dc:type
           rdf:resource="http://purl.org/dc/dcmitype/StillImage" />
        <dc:title></dc:title>
      </cc:Work>
    </rdf:RDF>
  </metadata>
  <defs
     id="defs6" />
  <path
     id="path3340"
     d="M 28.514275,75.327809 C 15.175325,71.675479 5.6447151,61.981509 1.4313271,47.780669 -0.55527297,41.085009 -0.47740297,35.099536 1.6867771,28.146036 6.0352251,14.174436 14.757615,5.6120709 28.918805,1.4136149 c 6.17393,-1.83042304 6.62672,-1.84799204 6.62672,-0.25712 0,0.733215 -2.35066,1.906089 -5.66943,2.828789 -5.70832,1.587054 -11.64979,4.769822 -15.78604,8.4563721 -3.53518,3.15084 -8.2231699,10.99976 -9.8580279,16.50492 -7.64873,25.756073 17.7777179,51.151053 43.5652179,43.511323 12.47755,-3.69657 21.04189,-12.25642 24.69014,-24.67723 5.44456,-18.536503 -6.16172,-38.4797451 -25.45749,-43.7439681 -3.50888,-0.957285 -5.85937,-2.106841 -5.85937,-2.865646 0,-1.60672304 0.44522,-1.59035004 6.62672,0.243697 10.70003,3.174696 19.14517,9.6219641 24.1398,18.4290541 8.33173,14.69143 5.37581,33.882413 -7.04971,45.769553 -5.64604,5.40139 -10.06633,7.92266 -17.07324,9.73833 -6.62156,1.71582 -12.97485,1.70796 -19.29982,-0.0239 z"
     style="fill:#aaa"
     stroke="#000000" 
     stroke-width="3" 
     stroke-miterlimit="10" />
</svg>
